<mxfile host="app.diagrams.net" modified="2023-06-19T16:43:15.951Z" agent="Mozilla/5.0 (Windows NT 10.0; Win64; x64) AppleWebKit/537.36 (KHTML, like Gecko) Chrome/114.0.0.0 Safari/537.36" etag="oEzxS_91ROAWIls-HGsK" version="21.5.0" type="device">
  <diagram name="Page-1" id="8rD68-SP-zZC2pBZNYJM">
    <mxGraphModel dx="2350" dy="773" grid="1" gridSize="10" guides="1" tooltips="1" connect="1" arrows="1" fold="1" page="1" pageScale="1" pageWidth="850" pageHeight="1100" math="0" shadow="0">
      <root>
        <mxCell id="0" />
        <mxCell id="1" parent="0" />
        <mxCell id="an0k2OPkQcMAAsoPMO_B-1" style="rounded=0;orthogonalLoop=1;jettySize=auto;html=1;edgeStyle=orthogonalEdgeStyle;entryX=0.5;entryY=0;entryDx=0;entryDy=0;" parent="1" source="UvKOG4Ck6y36qvMXHJWS-4" target="an0k2OPkQcMAAsoPMO_B-47" edge="1">
          <mxGeometry relative="1" as="geometry">
            <mxPoint x="-140" y="380" as="targetPoint" />
            <Array as="points">
              <mxPoint x="-140" y="120" />
            </Array>
          </mxGeometry>
        </mxCell>
        <mxCell id="an0k2OPkQcMAAsoPMO_B-38" value="2" style="edgeLabel;html=1;align=center;verticalAlign=middle;resizable=0;points=[];fontSize=15;fontFamily=Helvetica;fontColor=default;" parent="an0k2OPkQcMAAsoPMO_B-1" vertex="1" connectable="0">
          <mxGeometry x="0.57" y="-4" relative="1" as="geometry">
            <mxPoint as="offset" />
          </mxGeometry>
        </mxCell>
        <mxCell id="an0k2OPkQcMAAsoPMO_B-9" style="rounded=0;orthogonalLoop=1;jettySize=auto;html=1;edgeStyle=orthogonalEdgeStyle;" parent="1" source="UvKOG4Ck6y36qvMXHJWS-4" target="an0k2OPkQcMAAsoPMO_B-6" edge="1">
          <mxGeometry relative="1" as="geometry">
            <Array as="points">
              <mxPoint x="340" y="65" />
            </Array>
          </mxGeometry>
        </mxCell>
        <mxCell id="an0k2OPkQcMAAsoPMO_B-18" value="" style="edgeStyle=orthogonalEdgeStyle;shape=connector;rounded=0;orthogonalLoop=1;jettySize=auto;html=1;labelBackgroundColor=default;strokeColor=default;fontFamily=Helvetica;fontSize=11;fontColor=default;endArrow=classic;exitX=1;exitY=0.5;exitDx=0;exitDy=0;entryX=0.231;entryY=0.064;entryDx=0;entryDy=0;entryPerimeter=0;" parent="1" source="UvKOG4Ck6y36qvMXHJWS-4" target="an0k2OPkQcMAAsoPMO_B-17" edge="1">
          <mxGeometry relative="1" as="geometry">
            <mxPoint x="420.00427121978026" y="129.16" as="sourcePoint" />
            <mxPoint x="800.16" y="380.0034840368425" as="targetPoint" />
            <Array as="points">
              <mxPoint x="410" y="129" />
              <mxPoint x="770" y="129" />
            </Array>
          </mxGeometry>
        </mxCell>
        <mxCell id="an0k2OPkQcMAAsoPMO_B-67" value="4" style="edgeLabel;html=1;align=center;verticalAlign=middle;resizable=0;points=[];fontSize=15;fontFamily=Helvetica;fontColor=default;" parent="an0k2OPkQcMAAsoPMO_B-18" vertex="1" connectable="0">
          <mxGeometry x="-0.08" y="-1" relative="1" as="geometry">
            <mxPoint x="23" y="-12" as="offset" />
          </mxGeometry>
        </mxCell>
        <mxCell id="an0k2OPkQcMAAsoPMO_B-30" value="" style="edgeStyle=orthogonalEdgeStyle;shape=connector;rounded=0;orthogonalLoop=1;jettySize=auto;html=1;labelBackgroundColor=default;strokeColor=default;fontFamily=Helvetica;fontSize=11;fontColor=default;endArrow=classic;" parent="1" source="UvKOG4Ck6y36qvMXHJWS-4" target="an0k2OPkQcMAAsoPMO_B-29" edge="1">
          <mxGeometry relative="1" as="geometry">
            <Array as="points">
              <mxPoint x="180" y="150" />
            </Array>
          </mxGeometry>
        </mxCell>
        <mxCell id="an0k2OPkQcMAAsoPMO_B-39" value="3" style="edgeLabel;html=1;align=center;verticalAlign=middle;resizable=0;points=[];fontSize=15;fontFamily=Helvetica;fontColor=default;" parent="an0k2OPkQcMAAsoPMO_B-30" vertex="1" connectable="0">
          <mxGeometry x="0.23" relative="1" as="geometry">
            <mxPoint as="offset" />
          </mxGeometry>
        </mxCell>
        <mxCell id="an0k2OPkQcMAAsoPMO_B-32" style="edgeStyle=orthogonalEdgeStyle;shape=connector;rounded=0;orthogonalLoop=1;jettySize=auto;html=1;labelBackgroundColor=default;strokeColor=default;fontFamily=Helvetica;fontSize=11;fontColor=default;endArrow=classic;" parent="1" source="UvKOG4Ck6y36qvMXHJWS-4" target="UvKOG4Ck6y36qvMXHJWS-11" edge="1">
          <mxGeometry relative="1" as="geometry">
            <Array as="points">
              <mxPoint x="645" y="150" />
            </Array>
          </mxGeometry>
        </mxCell>
        <mxCell id="an0k2OPkQcMAAsoPMO_B-64" value="3" style="edgeLabel;html=1;align=center;verticalAlign=middle;resizable=0;points=[];fontSize=15;fontFamily=Helvetica;fontColor=default;" parent="an0k2OPkQcMAAsoPMO_B-32" vertex="1" connectable="0">
          <mxGeometry x="0.3741" y="-3" relative="1" as="geometry">
            <mxPoint as="offset" />
          </mxGeometry>
        </mxCell>
        <mxCell id="an0k2OPkQcMAAsoPMO_B-42" style="edgeStyle=none;shape=connector;rounded=0;orthogonalLoop=1;jettySize=auto;html=1;labelBackgroundColor=default;strokeColor=default;fontFamily=Helvetica;fontSize=11;fontColor=default;endArrow=classic;" parent="1" source="UvKOG4Ck6y36qvMXHJWS-4" target="an0k2OPkQcMAAsoPMO_B-46" edge="1">
          <mxGeometry relative="1" as="geometry">
            <mxPoint x="20" y="380" as="targetPoint" />
            <Array as="points">
              <mxPoint x="18" y="133" />
            </Array>
          </mxGeometry>
        </mxCell>
        <mxCell id="an0k2OPkQcMAAsoPMO_B-43" value="2" style="edgeLabel;html=1;align=center;verticalAlign=middle;resizable=0;points=[];fontSize=15;fontFamily=Helvetica;fontColor=default;" parent="an0k2OPkQcMAAsoPMO_B-42" vertex="1" connectable="0">
          <mxGeometry x="0.518" y="1" relative="1" as="geometry">
            <mxPoint as="offset" />
          </mxGeometry>
        </mxCell>
        <mxCell id="an0k2OPkQcMAAsoPMO_B-44" style="edgeStyle=orthogonalEdgeStyle;shape=connector;rounded=0;orthogonalLoop=1;jettySize=auto;html=1;labelBackgroundColor=default;strokeColor=default;fontFamily=Helvetica;fontSize=11;fontColor=default;endArrow=classic;" parent="1" source="UvKOG4Ck6y36qvMXHJWS-4" target="UvKOG4Ck6y36qvMXHJWS-14" edge="1">
          <mxGeometry relative="1" as="geometry">
            <Array as="points">
              <mxPoint x="340" y="320" />
              <mxPoint x="340" y="320" />
            </Array>
          </mxGeometry>
        </mxCell>
        <mxCell id="an0k2OPkQcMAAsoPMO_B-45" value="3" style="edgeLabel;html=1;align=center;verticalAlign=middle;resizable=0;points=[];fontSize=15;fontFamily=Helvetica;fontColor=default;" parent="an0k2OPkQcMAAsoPMO_B-44" vertex="1" connectable="0">
          <mxGeometry x="-0.1619" y="4" relative="1" as="geometry">
            <mxPoint x="-4" as="offset" />
          </mxGeometry>
        </mxCell>
        <mxCell id="an0k2OPkQcMAAsoPMO_B-58" style="edgeStyle=orthogonalEdgeStyle;shape=connector;rounded=0;orthogonalLoop=1;jettySize=auto;html=1;entryX=0.5;entryY=0;entryDx=0;entryDy=0;labelBackgroundColor=default;strokeColor=default;fontFamily=Helvetica;fontSize=11;fontColor=default;endArrow=classic;" parent="1" source="UvKOG4Ck6y36qvMXHJWS-4" target="UvKOG4Ck6y36qvMXHJWS-12" edge="1">
          <mxGeometry relative="1" as="geometry">
            <Array as="points">
              <mxPoint x="490" y="170" />
            </Array>
          </mxGeometry>
        </mxCell>
        <mxCell id="an0k2OPkQcMAAsoPMO_B-59" value="3" style="edgeLabel;html=1;align=center;verticalAlign=middle;resizable=0;points=[];fontSize=15;fontFamily=Helvetica;fontColor=default;" parent="an0k2OPkQcMAAsoPMO_B-58" vertex="1" connectable="0">
          <mxGeometry x="0.121" y="-3" relative="1" as="geometry">
            <mxPoint as="offset" />
          </mxGeometry>
        </mxCell>
        <mxCell id="UvKOG4Ck6y36qvMXHJWS-4" value="" style="ellipse;whiteSpace=wrap;html=1;shadow=0;labelBackgroundColor=none;fillStyle=auto;fontFamily=Helvetica;fontSize=12;gradientDirection=north;" parent="1" vertex="1">
          <mxGeometry x="270" y="95" width="140" height="75" as="geometry" />
        </mxCell>
        <mxCell id="UvKOG4Ck6y36qvMXHJWS-2" value="HeistToTheMuseum" style="ellipse;whiteSpace=wrap;html=1;shadow=0;labelBackgroundColor=none;fillStyle=auto;strokeColor=default;fontFamily=Helvetica;fontSize=12;fontColor=default;fillColor=#969696;gradientColor=none;gradientDirection=north;" parent="1" vertex="1">
          <mxGeometry x="280" y="102.5" width="120" height="57.5" as="geometry" />
        </mxCell>
        <mxCell id="an0k2OPkQcMAAsoPMO_B-81" style="edgeStyle=orthogonalEdgeStyle;shape=connector;rounded=0;orthogonalLoop=1;jettySize=auto;html=1;entryX=0;entryY=1;entryDx=0;entryDy=0;labelBackgroundColor=default;strokeColor=default;fontFamily=Helvetica;fontSize=11;fontColor=default;endArrow=classic;" parent="1" source="UvKOG4Ck6y36qvMXHJWS-11" target="an0k2OPkQcMAAsoPMO_B-17" edge="1">
          <mxGeometry relative="1" as="geometry">
            <Array as="points">
              <mxPoint x="700" y="530" />
              <mxPoint x="758" y="530" />
            </Array>
          </mxGeometry>
        </mxCell>
        <mxCell id="an0k2OPkQcMAAsoPMO_B-82" value="15" style="edgeLabel;html=1;align=center;verticalAlign=middle;resizable=0;points=[];fontSize=15;fontFamily=Helvetica;fontColor=default;" parent="an0k2OPkQcMAAsoPMO_B-81" vertex="1" connectable="0">
          <mxGeometry x="0.2022" y="-4" relative="1" as="geometry">
            <mxPoint as="offset" />
          </mxGeometry>
        </mxCell>
        <mxCell id="UvKOG4Ck6y36qvMXHJWS-11" value="Museum" style="ellipse;whiteSpace=wrap;html=1;shadow=0;labelBackgroundColor=none;fillStyle=auto;fontFamily=Helvetica;fontSize=12;gradientDirection=north;" parent="1" vertex="1">
          <mxGeometry x="580" y="380" width="130" height="60" as="geometry" />
        </mxCell>
        <mxCell id="an0k2OPkQcMAAsoPMO_B-83" style="edgeStyle=orthogonalEdgeStyle;shape=connector;rounded=0;orthogonalLoop=1;jettySize=auto;html=1;labelBackgroundColor=default;strokeColor=default;fontFamily=Helvetica;fontSize=11;fontColor=default;endArrow=classic;exitX=1;exitY=1;exitDx=0;exitDy=0;entryX=0.38;entryY=0.981;entryDx=0;entryDy=0;entryPerimeter=0;" parent="1" source="UvKOG4Ck6y36qvMXHJWS-12" edge="1" target="an0k2OPkQcMAAsoPMO_B-17">
          <mxGeometry relative="1" as="geometry">
            <mxPoint x="730" y="550" as="targetPoint" />
            <Array as="points">
              <mxPoint x="540" y="620" />
              <mxPoint x="790" y="620" />
            </Array>
            <mxPoint x="540" y="437.10523708715755" as="sourcePoint" />
          </mxGeometry>
        </mxCell>
        <mxCell id="an0k2OPkQcMAAsoPMO_B-84" value="14" style="edgeLabel;html=1;align=center;verticalAlign=middle;resizable=0;points=[];fontSize=15;fontFamily=Helvetica;fontColor=default;" parent="an0k2OPkQcMAAsoPMO_B-83" vertex="1" connectable="0">
          <mxGeometry x="0.233" y="-1" relative="1" as="geometry">
            <mxPoint x="5" as="offset" />
          </mxGeometry>
        </mxCell>
        <mxCell id="UvKOG4Ck6y36qvMXHJWS-12" value="assaultParties[i]&lt;br&gt;i = 0, 1" style="ellipse;whiteSpace=wrap;html=1;shadow=0;labelBackgroundColor=none;fillStyle=auto;fontFamily=Helvetica;fontSize=12;gradientDirection=north;" parent="1" vertex="1">
          <mxGeometry x="420" y="380" width="140" height="60" as="geometry" />
        </mxCell>
        <mxCell id="an0k2OPkQcMAAsoPMO_B-86" style="edgeStyle=orthogonalEdgeStyle;shape=connector;rounded=0;orthogonalLoop=1;jettySize=auto;html=1;labelBackgroundColor=default;strokeColor=default;fontFamily=Helvetica;fontSize=11;fontColor=default;endArrow=classic;" parent="1" source="UvKOG4Ck6y36qvMXHJWS-14" target="an0k2OPkQcMAAsoPMO_B-17" edge="1">
          <mxGeometry relative="1" as="geometry">
            <Array as="points">
              <mxPoint x="370" y="650" />
              <mxPoint x="840" y="650" />
            </Array>
          </mxGeometry>
        </mxCell>
        <mxCell id="an0k2OPkQcMAAsoPMO_B-87" value="13" style="edgeLabel;html=1;align=center;verticalAlign=middle;resizable=0;points=[];fontSize=15;fontFamily=Helvetica;fontColor=default;" parent="an0k2OPkQcMAAsoPMO_B-86" vertex="1" connectable="0">
          <mxGeometry x="-0.3938" y="-4" relative="1" as="geometry">
            <mxPoint y="-4" as="offset" />
          </mxGeometry>
        </mxCell>
        <mxCell id="UvKOG4Ck6y36qvMXHJWS-14" value="&lt;div&gt;controlCollectionSite&lt;/div&gt;" style="ellipse;whiteSpace=wrap;html=1;shadow=0;labelBackgroundColor=none;fillStyle=auto;fontFamily=Helvetica;fontSize=12;gradientDirection=north;" parent="1" vertex="1">
          <mxGeometry x="270" y="380" width="140" height="60" as="geometry" />
        </mxCell>
        <mxCell id="an0k2OPkQcMAAsoPMO_B-6" value="GenericIO" style="ellipse;shape=doubleEllipse;whiteSpace=wrap;html=1;" parent="1" vertex="1">
          <mxGeometry x="-180" y="35" width="127.5" height="60" as="geometry" />
        </mxCell>
        <mxCell id="an0k2OPkQcMAAsoPMO_B-10" value="&lt;font style=&quot;font-size: 14px;&quot;&gt;1&lt;/font&gt;" style="text;html=1;align=center;verticalAlign=middle;resizable=0;points=[];autosize=1;strokeColor=none;fillColor=none;fontSize=11;fontFamily=Helvetica;fontColor=default;" parent="1" vertex="1">
          <mxGeometry x="210" y="35" width="30" height="30" as="geometry" />
        </mxCell>
        <mxCell id="an0k2OPkQcMAAsoPMO_B-11" value="&lt;font style=&quot;font-size: 15px;&quot;&gt;&lt;font style=&quot;font-weight: normal; font-size: 15px;&quot;&gt;1 - writelnString&lt;br&gt;&lt;/font&gt;&lt;br&gt;&lt;span style=&quot;font-weight: 400;&quot;&gt;2 - instantiate, start, join&lt;/span&gt;&lt;br&gt;&lt;br&gt;&lt;span style=&quot;font-weight: 400;&quot;&gt;3 - instantiate&lt;/span&gt;&lt;br&gt;&lt;br&gt;&lt;span style=&quot;font-weight: 400;&quot;&gt;4 - instantiate, reportFinalStatus, reportLegend&lt;/span&gt;&lt;br&gt;&lt;br&gt;&lt;span style=&quot;font-weight: 400;&quot;&gt;5 - startOperations, appraiseSit, waitForThieves, assignAssaultPartyID, assignRoomID, setAssignRoomID,buildParty,&amp;nbsp;&lt;/span&gt;&lt;br&gt;&lt;span style=&quot;font-weight: 400;&quot;&gt;prepareAssaultParty, sendAssaultParty, setAssignedAPid, setAssignedRoomID, sumUpResults&lt;/span&gt;&lt;br&gt;&lt;br&gt;&lt;span style=&quot;font-weight: 400;&quot;&gt;6 - takeARest, collectACanvas&lt;/span&gt;&lt;br&gt;&lt;br style=&quot;&quot;&gt;&lt;span style=&quot;font-weight: normal;&quot;&gt;&lt;font style=&quot;font-size: 15px;&quot;&gt;7 - addThievesToParty, resetAssaultParty&lt;/font&gt;&lt;br style=&quot;&quot;&gt;&lt;/span&gt;&lt;br&gt;&lt;span style=&quot;font-weight: 400;&quot;&gt;8 - amINeeded, prepareExcursion, roomStates&amp;nbsp;&lt;/span&gt;&lt;br&gt;&lt;br&gt;&lt;span style=&quot;font-weight: 400;&quot;&gt;9 - handACanvas&lt;/span&gt;&lt;br&gt;&lt;br&gt;&lt;span style=&quot;font-weight: 400;&quot;&gt;10 - moveFirstPartyMember, crawlIN, getAssaultP_roomID, reverseDirection, crawlOUT, getAssaultP_roomID, getThiefIndex&lt;/span&gt;&lt;br&gt;&lt;br&gt;&lt;span style=&quot;font-weight: 400;&quot;&gt;11 - roolACanvas&lt;/span&gt;&lt;br&gt;&lt;br&gt;&lt;font style=&quot;font-weight: normal; font-size: 15px;&quot;&gt;12 - setMasterThiefState, setOTState, setAParty_Elem_ID, setAssaultParty_RId, setOTSituation, setStolenPaintings&lt;/font&gt;&amp;nbsp;&lt;br&gt;&lt;br&gt;&lt;font style=&quot;font-weight: normal; font-size: 15px;&quot;&gt;13 - setMasterThiefState, setOTState, setAParty_Elem_CV, setAssaultParty_RId, setAssaultParty_Elem_ID&lt;br&gt;&lt;br&gt;&lt;font style=&quot;border-color: var(--border-color); font-size: 15px;&quot;&gt;14 -&amp;nbsp;setMRoom_DT_outsideG&lt;/font&gt;,&amp;nbsp;&amp;nbsp;&lt;span style=&quot;border-color: var(--border-color);&quot;&gt;setAParty_Elem_Pos, setAParty_Elem_CV, setOT_State, setAParty_Elem_ID, setAssaultParty_RId&lt;/span&gt;&lt;br&gt;&lt;/font&gt;&lt;br&gt;&lt;font style=&quot;font-weight: normal; font-size: 15px;&quot;&gt;15 - setMRoom_NPaintings, setMRoom_DT_outside, setOTState&lt;br&gt;&lt;/font&gt;&lt;br&gt;&lt;span style=&quot;font-weight: 400;&quot;&gt;16 - instantiate, openForWriting, openForAppending, close, writelnString&lt;/span&gt;&lt;/font&gt;" style="text;strokeColor=none;fillColor=none;html=1;fontSize=11;fontStyle=1;verticalAlign=middle;align=left;fontFamily=Helvetica;fontColor=default;" parent="1" vertex="1">
          <mxGeometry x="-180" y="740" width="920" height="580" as="geometry" />
        </mxCell>
        <mxCell id="an0k2OPkQcMAAsoPMO_B-69" value="" style="edgeStyle=none;shape=connector;rounded=0;orthogonalLoop=1;jettySize=auto;html=1;labelBackgroundColor=default;strokeColor=default;fontFamily=Helvetica;fontSize=11;fontColor=default;endArrow=classic;" parent="1" source="an0k2OPkQcMAAsoPMO_B-17" target="an0k2OPkQcMAAsoPMO_B-68" edge="1">
          <mxGeometry relative="1" as="geometry" />
        </mxCell>
        <mxCell id="an0k2OPkQcMAAsoPMO_B-70" value="16" style="edgeLabel;html=1;align=center;verticalAlign=middle;resizable=0;points=[];fontSize=15;fontFamily=Helvetica;fontColor=default;" parent="an0k2OPkQcMAAsoPMO_B-69" vertex="1" connectable="0">
          <mxGeometry x="0.375" y="-2" relative="1" as="geometry">
            <mxPoint x="-15" y="-13" as="offset" />
          </mxGeometry>
        </mxCell>
        <mxCell id="an0k2OPkQcMAAsoPMO_B-17" value="repos" style="ellipse;whiteSpace=wrap;html=1;shadow=0;labelBackgroundColor=none;fillStyle=auto;fontFamily=Helvetica;fontSize=12;gradientDirection=north;" parent="1" vertex="1">
          <mxGeometry x="740" y="380" width="130" height="62.5" as="geometry" />
        </mxCell>
        <mxCell id="an0k2OPkQcMAAsoPMO_B-19" style="edgeStyle=none;shape=connector;rounded=0;orthogonalLoop=1;jettySize=auto;html=1;entryX=1;entryY=0.5;entryDx=0;entryDy=0;labelBackgroundColor=default;strokeColor=default;fontFamily=Helvetica;fontSize=11;fontColor=default;endArrow=classic;" parent="1" source="an0k2OPkQcMAAsoPMO_B-17" target="an0k2OPkQcMAAsoPMO_B-17" edge="1">
          <mxGeometry relative="1" as="geometry" />
        </mxCell>
        <mxCell id="an0k2OPkQcMAAsoPMO_B-20" style="edgeStyle=none;shape=connector;rounded=0;orthogonalLoop=1;jettySize=auto;html=1;entryX=1;entryY=0.5;entryDx=0;entryDy=0;labelBackgroundColor=default;strokeColor=default;fontFamily=Helvetica;fontSize=11;fontColor=default;endArrow=classic;" parent="1" source="an0k2OPkQcMAAsoPMO_B-17" target="an0k2OPkQcMAAsoPMO_B-17" edge="1">
          <mxGeometry relative="1" as="geometry" />
        </mxCell>
        <mxCell id="an0k2OPkQcMAAsoPMO_B-88" style="edgeStyle=orthogonalEdgeStyle;shape=connector;rounded=0;orthogonalLoop=1;jettySize=auto;html=1;labelBackgroundColor=default;strokeColor=default;fontFamily=Helvetica;fontSize=11;fontColor=default;endArrow=classic;" parent="1" edge="1">
          <mxGeometry relative="1" as="geometry">
            <Array as="points">
              <mxPoint x="190" y="680" />
              <mxPoint x="810" y="680" />
            </Array>
            <mxPoint x="190" y="440.6576872239524" as="sourcePoint" />
            <mxPoint x="810" y="440.0043346881622" as="targetPoint" />
          </mxGeometry>
        </mxCell>
        <mxCell id="an0k2OPkQcMAAsoPMO_B-89" value="12" style="edgeLabel;html=1;align=center;verticalAlign=middle;resizable=0;points=[];fontSize=15;fontFamily=Helvetica;fontColor=default;" parent="an0k2OPkQcMAAsoPMO_B-88" vertex="1" connectable="0">
          <mxGeometry x="0.3325" y="-4" relative="1" as="geometry">
            <mxPoint x="-138" y="-4" as="offset" />
          </mxGeometry>
        </mxCell>
        <mxCell id="an0k2OPkQcMAAsoPMO_B-29" value="concentrationSite" style="ellipse;whiteSpace=wrap;html=1;shadow=0;labelBackgroundColor=none;fillStyle=auto;fontFamily=Helvetica;fontSize=12;gradientDirection=north;" parent="1" vertex="1">
          <mxGeometry x="115" y="380" width="140" height="60" as="geometry" />
        </mxCell>
        <UserObject label="" id="an0k2OPkQcMAAsoPMO_B-48">
          <mxCell style="edgeStyle=orthogonalEdgeStyle;shape=connector;rounded=0;orthogonalLoop=1;jettySize=auto;html=1;entryX=0;entryY=1;entryDx=0;entryDy=0;labelBackgroundColor=default;strokeColor=default;fontFamily=Helvetica;fontSize=11;fontColor=default;endArrow=classic;" parent="1" source="an0k2OPkQcMAAsoPMO_B-46" target="an0k2OPkQcMAAsoPMO_B-29" edge="1">
            <mxGeometry relative="1" as="geometry">
              <Array as="points">
                <mxPoint x="40" y="470" />
                <mxPoint x="136" y="470" />
              </Array>
            </mxGeometry>
          </mxCell>
        </UserObject>
        <mxCell id="an0k2OPkQcMAAsoPMO_B-51" value="5" style="edgeLabel;html=1;align=center;verticalAlign=middle;resizable=0;points=[];fontSize=15;fontFamily=Helvetica;fontColor=default;" parent="an0k2OPkQcMAAsoPMO_B-48" vertex="1" connectable="0">
          <mxGeometry x="-0.1036" y="4" relative="1" as="geometry">
            <mxPoint y="4" as="offset" />
          </mxGeometry>
        </mxCell>
        <mxCell id="an0k2OPkQcMAAsoPMO_B-49" style="edgeStyle=orthogonalEdgeStyle;shape=connector;rounded=0;orthogonalLoop=1;jettySize=auto;html=1;labelBackgroundColor=default;strokeColor=default;fontFamily=Helvetica;fontSize=11;fontColor=default;endArrow=classic;" parent="1" source="an0k2OPkQcMAAsoPMO_B-46" target="UvKOG4Ck6y36qvMXHJWS-14" edge="1">
          <mxGeometry relative="1" as="geometry">
            <Array as="points">
              <mxPoint x="10" y="490" />
              <mxPoint x="320" y="490" />
            </Array>
          </mxGeometry>
        </mxCell>
        <mxCell id="an0k2OPkQcMAAsoPMO_B-52" value="6" style="edgeLabel;html=1;align=center;verticalAlign=middle;resizable=0;points=[];fontSize=15;fontFamily=Helvetica;fontColor=default;" parent="an0k2OPkQcMAAsoPMO_B-49" vertex="1" connectable="0">
          <mxGeometry x="-0.32" y="3" relative="1" as="geometry">
            <mxPoint x="-76" as="offset" />
          </mxGeometry>
        </mxCell>
        <mxCell id="Mogrrx6U7sAck67JoByr-2" style="edgeStyle=orthogonalEdgeStyle;rounded=0;orthogonalLoop=1;jettySize=auto;html=1;exitX=0;exitY=1;exitDx=0;exitDy=0;entryX=0.418;entryY=1.021;entryDx=0;entryDy=0;entryPerimeter=0;" edge="1" parent="1" target="UvKOG4Ck6y36qvMXHJWS-12">
          <mxGeometry relative="1" as="geometry">
            <mxPoint x="-19.997474683058044" y="431.21320343559637" as="sourcePoint" />
            <mxPoint x="480" y="460" as="targetPoint" />
            <Array as="points">
              <mxPoint x="-20" y="510" />
              <mxPoint x="479" y="510" />
            </Array>
          </mxGeometry>
        </mxCell>
        <mxCell id="Mogrrx6U7sAck67JoByr-3" value="&lt;font style=&quot;font-size: 15px;&quot;&gt;7&lt;/font&gt;" style="edgeLabel;html=1;align=center;verticalAlign=middle;resizable=0;points=[];" vertex="1" connectable="0" parent="Mogrrx6U7sAck67JoByr-2">
          <mxGeometry x="-0.6519" y="1" relative="1" as="geometry">
            <mxPoint x="-1" as="offset" />
          </mxGeometry>
        </mxCell>
        <mxCell id="an0k2OPkQcMAAsoPMO_B-46" value="Master Thief&lt;br&gt;" style="ellipse;whiteSpace=wrap;html=1;shadow=0;labelBackgroundColor=none;fillStyle=auto;strokeColor=default;fontFamily=Helvetica;fontSize=12;fontColor=default;fillColor=#969696;gradientColor=none;gradientDirection=north;" parent="1" vertex="1">
          <mxGeometry x="-52.5" y="380" width="140" height="60" as="geometry" />
        </mxCell>
        <mxCell id="an0k2OPkQcMAAsoPMO_B-53" style="edgeStyle=orthogonalEdgeStyle;shape=connector;rounded=0;orthogonalLoop=1;jettySize=auto;html=1;labelBackgroundColor=default;strokeColor=default;fontFamily=Helvetica;fontSize=11;fontColor=default;endArrow=classic;" parent="1" source="an0k2OPkQcMAAsoPMO_B-47" edge="1">
          <mxGeometry relative="1" as="geometry">
            <mxPoint x="160" y="440" as="targetPoint" />
            <Array as="points">
              <mxPoint x="-100" y="540" />
              <mxPoint x="160" y="540" />
            </Array>
          </mxGeometry>
        </mxCell>
        <mxCell id="an0k2OPkQcMAAsoPMO_B-54" value="8" style="edgeLabel;html=1;align=center;verticalAlign=middle;resizable=0;points=[];fontSize=15;fontFamily=Helvetica;fontColor=default;" parent="an0k2OPkQcMAAsoPMO_B-53" vertex="1" connectable="0">
          <mxGeometry x="-0.3135" y="1" relative="1" as="geometry">
            <mxPoint as="offset" />
          </mxGeometry>
        </mxCell>
        <mxCell id="an0k2OPkQcMAAsoPMO_B-60" style="edgeStyle=orthogonalEdgeStyle;shape=connector;rounded=0;orthogonalLoop=1;jettySize=auto;html=1;labelBackgroundColor=default;strokeColor=default;fontFamily=Helvetica;fontSize=11;fontColor=default;endArrow=classic;exitX=0.5;exitY=1;exitDx=0;exitDy=0;entryX=0.5;entryY=1;entryDx=0;entryDy=0;" parent="1" edge="1">
          <mxGeometry relative="1" as="geometry">
            <Array as="points">
              <mxPoint x="-140" y="440" />
              <mxPoint x="-140" y="590" />
              <mxPoint x="510" y="590" />
            </Array>
            <mxPoint x="-120" y="440" as="sourcePoint" />
            <mxPoint x="510" y="440" as="targetPoint" />
          </mxGeometry>
        </mxCell>
        <mxCell id="an0k2OPkQcMAAsoPMO_B-61" value="10" style="edgeLabel;html=1;align=center;verticalAlign=middle;resizable=0;points=[];fontSize=15;fontFamily=Helvetica;fontColor=default;" parent="an0k2OPkQcMAAsoPMO_B-60" vertex="1" connectable="0">
          <mxGeometry x="-0.1191" y="-5" relative="1" as="geometry">
            <mxPoint x="-195" y="-5" as="offset" />
          </mxGeometry>
        </mxCell>
        <mxCell id="an0k2OPkQcMAAsoPMO_B-62" style="edgeStyle=orthogonalEdgeStyle;shape=connector;rounded=0;orthogonalLoop=1;jettySize=auto;html=1;labelBackgroundColor=default;strokeColor=default;fontFamily=Helvetica;fontSize=11;fontColor=default;endArrow=classic;entryX=0.5;entryY=1;entryDx=0;entryDy=0;" parent="1" source="an0k2OPkQcMAAsoPMO_B-47" edge="1" target="UvKOG4Ck6y36qvMXHJWS-14">
          <mxGeometry relative="1" as="geometry">
            <mxPoint x="340" y="481.25" as="targetPoint" />
            <Array as="points">
              <mxPoint x="-120" y="571" />
              <mxPoint x="340" y="571" />
            </Array>
            <mxPoint x="-120" y="479.99944542499725" as="sourcePoint" />
          </mxGeometry>
        </mxCell>
        <mxCell id="an0k2OPkQcMAAsoPMO_B-63" value="9" style="edgeLabel;html=1;align=center;verticalAlign=middle;resizable=0;points=[];fontSize=15;fontFamily=Helvetica;fontColor=default;" parent="an0k2OPkQcMAAsoPMO_B-62" vertex="1" connectable="0">
          <mxGeometry x="-0.2747" y="2" relative="1" as="geometry">
            <mxPoint x="-111" as="offset" />
          </mxGeometry>
        </mxCell>
        <mxCell id="an0k2OPkQcMAAsoPMO_B-65" style="edgeStyle=orthogonalEdgeStyle;shape=connector;rounded=0;orthogonalLoop=1;jettySize=auto;html=1;labelBackgroundColor=default;strokeColor=default;fontFamily=Helvetica;fontSize=11;fontColor=default;endArrow=classic;" parent="1" source="an0k2OPkQcMAAsoPMO_B-47" target="UvKOG4Ck6y36qvMXHJWS-11" edge="1">
          <mxGeometry relative="1" as="geometry">
            <Array as="points">
              <mxPoint x="-160" y="611" />
              <mxPoint x="655" y="611" />
            </Array>
            <mxPoint x="-160" y="477.59523708715756" as="sourcePoint" />
            <mxPoint x="649.4000000000001" y="439.9999999999999" as="targetPoint" />
          </mxGeometry>
        </mxCell>
        <mxCell id="an0k2OPkQcMAAsoPMO_B-66" value="11" style="edgeLabel;html=1;align=center;verticalAlign=middle;resizable=0;points=[];fontSize=15;fontFamily=Helvetica;fontColor=default;" parent="an0k2OPkQcMAAsoPMO_B-65" vertex="1" connectable="0">
          <mxGeometry x="-0.2667" y="-2" relative="1" as="geometry">
            <mxPoint x="-187" y="-2" as="offset" />
          </mxGeometry>
        </mxCell>
        <mxCell id="an0k2OPkQcMAAsoPMO_B-47" value="Ordinary Thieves[i]&lt;br&gt;i = 0, 1, ..., 5" style="ellipse;whiteSpace=wrap;html=1;shadow=0;labelBackgroundColor=none;fillStyle=auto;strokeColor=default;fontFamily=Helvetica;fontSize=12;fontColor=default;fillColor=#969696;gradientColor=none;gradientDirection=north;" parent="1" vertex="1">
          <mxGeometry x="-210" y="380" width="140" height="60" as="geometry" />
        </mxCell>
        <mxCell id="an0k2OPkQcMAAsoPMO_B-68" value="log" style="ellipse;whiteSpace=wrap;html=1;shadow=0;labelBackgroundColor=none;fillStyle=auto;fontFamily=Helvetica;fontSize=12;gradientDirection=north;" parent="1" vertex="1">
          <mxGeometry x="800" y="240" width="130" height="62.5" as="geometry" />
        </mxCell>
      </root>
    </mxGraphModel>
  </diagram>
</mxfile>
